<svg xmlns="http://www.w3.org/2000/svg" version="1.1" xmlns:xlink="http://www.w3.org/1999/xlink" xmlns:svgjs="http://svgjs.dev/svgjs" width="24" height="24"><svg id="SvgjsSvg1022" data-name="Layer 1" xmlns="http://www.w3.org/2000/svg" width="24" height="24" viewBox="0 0 24 24">
  <path d="M11.05,16.48h0c.1,6.79,12.09,5.94,11.13-.63-.17-1.19-.84-2.28-1.89-3.04-.06-.05-.12-.11-.12-.18h0c1.21-3.08,2.61-6.11,3.81-9.19h0c.16-.49-.57-.79-.88-.42h0c-.49.83-.77,1.77-1.18,2.65l-.07.15s0,0,0,0c-1.99-4.33-9.59-3.86-10.78.74-.52-1.01-.9-2.15-1.37-3.2-.21-.6-1.1-.39-1.02.22,2.17,5.58,4.8,11.16,6.93,16.69h0c-.18.03-.33-.09-.39-.26h0c-2.4-5.61-4.68-11.28-7.15-16.86-.09-.14-.27-.21-.44-.18-.18.02-.34.13-.43.29h0C4.79,8.92,2.4,14.62.01,20.3c-.05.21.09.43.29.52.2.08.46.07.62-.08h0c2.32-5.23,4.46-10.58,6.73-15.84.04-.2.59,1.32,1.9,4.38.62,1.53,1.37,3.15,2.21,5.28h0s0,.08-.02.11c-.31.42-.65,1.08-.68,1.81h0ZM12.26,15.69c.23.4,1.55,3.69,1.68,4.01-1.41-.77-2.42-2.53-1.68-4.01ZM13.08,11.41c1.74.84,3.78.9,5.6,1.55.1.03.17.09.12.19-.83,1.94-1.6,3.91-2.48,5.83h0c-1.14-2.45-2.21-5.06-3.23-7.57h0s0,0,0,0ZM21,15.1c1.11,2.67-1.08,5.08-3.96,5.27-.13.01-.2,0-.13-.15.98-2.2,1.83-4.5,2.87-6.65h0c.59.31.97.94,1.22,1.53h0ZM21.16,7.42h0c-.64,1.57-1.3,3.13-1.96,4.69-.03.07-.08.1-.16.07-1.61-.6-3.38-.68-4.99-1.3-2.47-1.02-2.87-4.7-.68-6.19,2.54-2.05,7.83-.99,7.79,2.72h0Z"></path>
</svg><style>@media (prefers-color-scheme: light) { :root { filter: none; } }
@media (prefers-color-scheme: dark) { :root { filter: none; } }
</style></svg>