<?xml version="1.0" encoding="UTF-8"?>
<svg id="Layer_1" data-name="Layer 1" xmlns="http://www.w3.org/2000/svg" viewBox="0 0 2996.06 2294.15">
  <defs>
    <style>
      .cls-1 {
        stroke-width: 0px;
      }
    </style>
  </defs>
  <path class="cls-1" d="M1379.9,1706.05s0,0,0,0c12.81,848.17,1509.83,741.29,1388.91-79.11-21.17-149.17-105.25-284.31-236.5-378.9-7.72-5.78-15.43-13.67-14.82-23.04,0,0,0,0,0,0,151.36-384.4,325.41-762.48,475.82-1147.47,0,0,0,0,0,0,19.7-61.62-71.47-98.55-109.67-52.87,0,0,0,0,0,0-61.33,103.71-96.7,221.34-147.55,330.51l-8.64,18.42s-.04.02-.04,0c-247.9-540.02-1196.86-482.06-1346.15,92.71-65.49-126.19-111.76-267.88-171.11-398.95-26.41-74.81-136.7-49.01-127.26,27.84,271.49,696.8,598.71,1393.61,865.25,2083.21,0,0,0,0,0,0-22.89,3.2-41.78-11.47-48.42-32.54,0,0,0,0,0,0C1600.03,1445.46,1315.36,738.22,1007.19,41.63c-11.01-17.2-33.44-25.86-54.36-22.5-22.63,3.04-42.7,16.61-53.18,35.6,0,0,0,0,0,0C597.81,763.04,299.08,1473.52,1.45,2183.11c-6.8,25.72,11.11,54.01,35.97,64.74,24.7,9.77,57.92,8.16,77.58-9.88,0,0,0,0,0,0C404.39,1584.52,671.6,917.79,954.64,260.44c4.73-24.7,74.08,164.36,237.7,547.33,77.6,191.54,171.33,393.32,275.35,658.58,0,0,0,0,0,.02.34,4.8-.72,9.82-2.83,13.86-39.07,51.81-80.64,134.57-84.96,225.83ZM1529.98,1607.56c29.08,49.58,193.41,460.26,209.74,500.96-176.18-96.05-301.87-315.26-209.74-500.96ZM1632.39,1073.82c216.85,105.22,471.42,112.76,698.66,193.6,12.18,3.85,21.02,10.98,14.74,24.29-103.06,241.58-200.18,487.52-309.97,727.27,0,0,0,0,0,0-142.63-306.19-275.53-631.12-403.47-945.12l.05-.04ZM2621.46,1533.52c138.69,332.93-135.02,634.08-494.4,657.54-15.62,1.47-24.78-.88-15.84-18.68,121.82-274.87,228.73-561.62,357.85-830.37,0,0,0,0,0,0,73.74,39.29,121.33,117.73,152.38,191.51ZM2641.25,575.91s0,0,0,0c-80.3,195.67-161.95,391.03-244.08,586.06-4.17,8.64-10.59,12.03-20.24,9.25-201.39-74.33-422.37-84.94-622.77-161.82-307.91-127.53-358.33-586.52-85.36-772.91,317.7-255.42,977.15-123.29,972.44,339.42Z"/>
</svg>